<?xml version="1.0" encoding="UTF-8" standalone="no"?>
<!-- Generator: Adobe Illustrator 21.0.2, SVG Export Plug-In . SVG Version: 6.00 Build 0)  -->

<svg
   xmlns:dc="http://purl.org/dc/elements/1.1/"
   xmlns:cc="http://creativecommons.org/ns#"
   xmlns:rdf="http://www.w3.org/1999/02/22-rdf-syntax-ns#"
   xmlns:svg="http://www.w3.org/2000/svg"
   xmlns="http://www.w3.org/2000/svg"
   xmlns:sodipodi="http://sodipodi.sourceforge.net/DTD/sodipodi-0.dtd"
   xmlns:inkscape="http://www.inkscape.org/namespaces/inkscape"
   version="1.1"
   id="Layer_1"
   x="0px"
   y="0px"
   viewBox="0 0 100.5 85.5"
   xml:space="preserve"
   inkscape:version="0.48.4 r9939"
   width="100%"
   height="100%"
   sodipodi:docname="coding.svg"><metadata
     id="metadata21"><rdf:RDF><cc:Work
         rdf:about=""><dc:format>image/svg+xml</dc:format><dc:type
           rdf:resource="http://purl.org/dc/dcmitype/StillImage" /></cc:Work></rdf:RDF></metadata><defs
     id="defs19" /><sodipodi:namedview
     pagecolor="#ffffff"
     bordercolor="#666666"
     borderopacity="1"
     objecttolerance="10"
     gridtolerance="10"
     guidetolerance="10"
     inkscape:pageopacity="0"
     inkscape:pageshadow="2"
     inkscape:window-width="640"
     inkscape:window-height="480"
     id="namedview17"
     showgrid="false"
     inkscape:zoom="2.3482587"
     inkscape:cx="40.838335"
     inkscape:cy="50.25"
     inkscape:window-x="1805"
     inkscape:window-y="183"
     inkscape:window-maximized="0"
     inkscape:current-layer="Layer_1" /><g
     id="g3"
     transform="translate(0.42584746,-6.9088983)"
     style="fill:#ffffff"><path
       d="m 55.693,49.974 c -0.736,-0.376 -1.642,-0.086 -2.019,0.652 L 43.625,70.267 c -0.377,0.738 -0.085,1.642 0.652,2.019 0.219,0.112 0.452,0.165 0.682,0.165 0.545,0 1.071,-0.298 1.336,-0.816 L 56.343,51.994 c 0.38,-0.739 0.088,-1.642 -0.65,-2.02 z"
       id="path5"
       inkscape:connector-curvature="0"
       style="fill:#ffffff" /><path
       d="m 66.208,49.224 c -0.586,-0.585 -1.535,-0.585 -2.121,0 -0.586,0.585 -0.586,1.536 0,2.121 l 9.583,9.58 -9.583,9.58 c -0.586,0.585 -0.586,1.535 0,2.121 0.293,0.293 0.677,0.439 1.061,0.439 0.384,0 0.768,-0.146 1.061,-0.439 L 76.854,61.985 c 0.281,-0.281 0.439,-0.663 0.439,-1.061 0,-0.398 -0.158,-0.779 -0.439,-1.061 L 66.208,49.224 z"
       id="path7"
       inkscape:connector-curvature="0"
       style="fill:#ffffff" /><path
       d="m 35.911,49.225 c -0.585,-0.586 -1.535,-0.586 -2.121,0 l -10.643,10.64 c -0.281,0.281 -0.439,0.663 -0.439,1.061 0,0.398 0.158,0.779 0.439,1.061 l 10.643,10.64 c 0.293,0.293 0.677,0.439 1.061,0.439 0.384,0 0.768,-0.146 1.061,-0.439 0.586,-0.586 0.586,-1.535 0,-2.121 l -9.581,-9.58 9.581,-9.58 c 0.585,-0.586 0.585,-1.535 -10e-4,-2.121 z"
       id="path9"
       inkscape:connector-curvature="0"
       style="fill:#ffffff" /><path
       d="M 95.874,8.414 H 4.126 c -0.829,0 -1.5,0.671 -1.5,1.5 v 80.173 c 0,0.828 0.671,1.5 1.5,1.5 h 91.748 c 0.828,0 1.5,-0.672 1.5,-1.5 V 9.914 c 0,-0.829 -0.672,-1.5 -1.5,-1.5 z m -1.5,3 V 30.276 H 5.626 V 11.414 H 94.374 z M 5.626,88.587 V 33.276 H 94.374 V 88.587 H 5.626 z"
       id="path11"
       inkscape:connector-curvature="0"
       style="fill:#ffffff" /><path
       d="m 13.562,21.851 h 6.89 c 0.829,0 1.5,-0.671 1.5,-1.5 0,-0.829 -0.671,-1.5 -1.5,-1.5 h -6.89 c -0.829,0 -1.5,0.671 -1.5,1.5 0,0.829 0.671,1.5 1.5,1.5 z"
       id="path13"
       inkscape:connector-curvature="0"
       style="fill:#ffffff" /><path
       d="m 28.326,21.851 h 6.89 c 0.829,0 1.5,-0.671 1.5,-1.5 0,-0.829 -0.671,-1.5 -1.5,-1.5 h -6.89 c -0.829,0 -1.5,0.671 -1.5,1.5 0,0.829 0.672,1.5 1.5,1.5 z"
       id="path15"
       inkscape:connector-curvature="0"
       style="fill:#ffffff" /></g></svg>