<?xml version="1.0" encoding="UTF-8" standalone="no"?>
<!-- Generator: Adobe Illustrator 21.0.2, SVG Export Plug-In . SVG Version: 6.00 Build 0)  -->

<svg
   xmlns:dc="http://purl.org/dc/elements/1.1/"
   xmlns:cc="http://creativecommons.org/ns#"
   xmlns:rdf="http://www.w3.org/1999/02/22-rdf-syntax-ns#"
   xmlns:svg="http://www.w3.org/2000/svg"
   xmlns="http://www.w3.org/2000/svg"
   xmlns:sodipodi="http://sodipodi.sourceforge.net/DTD/sodipodi-0.dtd"
   xmlns:inkscape="http://www.inkscape.org/namespaces/inkscape"
   version="1.1"
   id="Layer_1"
   x="0px"
   y="0px"
   viewBox="0 0 100.5 85.5"
   xml:space="preserve"
   inkscape:version="0.48.4 r9939"
   width="100%"
   height="100%"
   sodipodi:docname="goals.svg"><metadata
     id="metadata3075"><rdf:RDF><cc:Work
         rdf:about=""><dc:format>image/svg+xml</dc:format><dc:type
           rdf:resource="http://purl.org/dc/dcmitype/StillImage" /></cc:Work></rdf:RDF></metadata><defs
     id="defs3073" /><sodipodi:namedview
     pagecolor="#ffffff"
     bordercolor="#666666"
     borderopacity="1"
     objecttolerance="10"
     gridtolerance="10"
     guidetolerance="10"
     inkscape:pageopacity="0"
     inkscape:pageshadow="2"
     inkscape:window-width="640"
     inkscape:window-height="480"
     id="namedview3071"
     showgrid="false"
     inkscape:zoom="2.3482587"
     inkscape:cx="50.25"
     inkscape:cy="50.25"
     inkscape:window-x="2043"
     inkscape:window-y="245"
     inkscape:window-maximized="0"
     inkscape:current-layer="Layer_1" /><g
     id="g3063"
     transform="translate(0.85169492,-6.4830508)"
     style="fill:#ffffff"><path
       d="M 89.955,10.417 H 36.768 c -4.943,0 -8.965,4.02 -8.965,8.961 v 9.727 c 0,0.829 0.671,1.5 1.5,1.5 0.829,0 1.5,-0.671 1.5,-1.5 v -9.727 c 0,-3.287 2.676,-5.961 5.965,-5.961 h 53.187 c 3.292,0 5.97,2.674 5.97,5.961 v 36.609 c 0,3.287 -2.678,5.961 -5.97,5.961 H 70.026 c -0.025,0 -0.049,0.006 -0.074,0.007 -0.025,-10e-4 -0.048,-0.007 -0.074,-0.007 h -13.04 c -0.828,0 -1.5,0.672 -1.5,1.5 V 78.943 H 41.02 c -0.829,0 -1.5,0.672 -1.5,1.5 0,0.828 0.671,1.5 1.5,1.5 h 15.819 13.04 15.832 c 0.828,0 1.5,-0.672 1.5,-1.5 0,-0.828 -0.672,-1.5 -1.5,-1.5 H 71.379 V 64.948 h 18.576 c 4.946,0 8.97,-4.02 8.97,-8.961 V 19.378 c 0,-4.941 -4.024,-8.961 -8.97,-8.961 z M 58.339,78.943 V 64.948 h 10.04 v 13.995 h -10.04 z"
       id="path3065"
       inkscape:connector-curvature="0"
       style="fill:#ffffff" /><path
       d="m 32.282,75.095 c 5.586,0 11.149,-2.296 15.138,-6.793 0,0 0,0 0,0 7.399,-8.345 6.633,-21.152 -1.709,-28.55 -8.344,-7.396 -21.15,-6.629 -28.548,1.709 -7.061,7.965 -6.666,19.984 0.636,27.496 L 15.34,71.732 14.772,71.229 C 14.153,70.681 13.21,70.737 12.661,71.351 L 1.552,83.756 c -0.266,0.297 -0.403,0.687 -0.38,1.084 0.022,0.397 0.201,0.771 0.498,1.035 l 3.493,3.121 c 0.286,0.256 0.643,0.382 0.999,0.382 0.412,0 0.822,-0.169 1.118,-0.5 L 18.4,76.453 c 0.266,-0.297 0.403,-0.688 0.38,-1.087 -0.023,-0.398 -0.205,-0.771 -0.503,-1.036 l -0.689,-0.61 2.453,-2.768 c 3.625,2.768 7.937,4.143 12.241,4.143 z M 6.044,85.761 4.788,84.639 13.795,74.583 c 0.079,0.25 0.219,0.485 0.43,0.671 0.26,0.23 0.579,0.34 0.901,0.36 L 6.044,85.761 z M 19.408,43.452 c 3.398,-3.83 8.134,-5.784 12.893,-5.784 4.065,0 8.146,1.427 11.42,4.328 7.104,6.3 7.757,17.208 1.455,24.315 -6.3,7.103 -17.209,7.756 -24.314,1.454 C 13.76,61.466 13.108,50.559 19.408,43.452 z"
       id="path3067"
       inkscape:connector-curvature="0"
       style="fill:#ffffff" /><circle
       cx="63.474998"
       cy="22.622999"
       r="1.79"
       id="circle3069"
       sodipodi:cx="63.474998"
       sodipodi:cy="22.622999"
       sodipodi:rx="1.79"
       sodipodi:ry="1.79"
       d="m 65.264998,22.622999 c 0,0.98859 -0.80141,1.79 -1.79,1.79 -0.988589,0 -1.789999,-0.80141 -1.789999,-1.79 0,-0.988589 0.80141,-1.79 1.789999,-1.79 0.98859,0 1.79,0.801411 1.79,1.79 z"
       style="fill:#ffffff" /></g></svg>