<?xml version="1.0" encoding="UTF-8" standalone="no"?>
<svg
   xmlns:dc="http://purl.org/dc/elements/1.1/"
   xmlns:cc="http://creativecommons.org/ns#"
   xmlns:rdf="http://www.w3.org/1999/02/22-rdf-syntax-ns#"
   xmlns:svg="http://www.w3.org/2000/svg"
   xmlns="http://www.w3.org/2000/svg"
   xmlns:sodipodi="http://sodipodi.sourceforge.net/DTD/sodipodi-0.dtd"
   xmlns:inkscape="http://www.inkscape.org/namespaces/inkscape"
   id="Слой_2"
   data-name="Слой 2"
   viewBox="0 0 85 85"
   version="1.1"
   inkscape:version="0.48.4 r9939"
   width="100%"
   height="100%"
   sodipodi:docname="Tilda_Icons_40_IT_structure.svg">
  <metadata
     id="metadata11">
    <rdf:RDF>
      <cc:Work
         rdf:about="">
        <dc:format>image/svg+xml</dc:format>
        <dc:type
           rdf:resource="http://purl.org/dc/dcmitype/StillImage" />
      </cc:Work>
    </rdf:RDF>
  </metadata>
  <defs
     id="defs9" />
  <sodipodi:namedview
     pagecolor="#ffffff"
     bordercolor="#666666"
     borderopacity="1"
     objecttolerance="10"
     gridtolerance="10"
     guidetolerance="10"
     inkscape:pageopacity="0"
     inkscape:pageshadow="2"
     inkscape:window-width="640"
     inkscape:window-height="480"
     id="namedview7"
     showgrid="false"
     inkscape:zoom="2.36"
     inkscape:cx="50"
     inkscape:cy="50"
     inkscape:window-x="75"
     inkscape:window-y="34"
     inkscape:window-maximized="0"
     inkscape:current-layer="Слой_2" />
  <title
     id="title3">Монтажная область 18</title>
  <path
     d="M 81.103325,58.746956 H 73.399609 V 23.487109 A 1.5407432,1.6790403 0 0 0 71.858866,21.808068 H 60.046502 V 5.5773451 A 1.5407432,1.6790403 0 0 0 58.505759,3.8983047 H 26.663733 A 1.5407432,1.6790403 0 0 0 25.12299,5.5773451 V 21.808068 H 13.310626 a 1.5407432,1.6790403 0 0 0 -1.540743,1.679041 V 58.746956 H 4.0661669 a 1.5407432,1.6790403 0 0 0 -1.5407432,1.67904 v 21.267845 a 1.5407432,1.6790403 0 0 0 1.5407432,1.67904 H 23.582247 a 1.5407432,1.6790403 0 0 0 1.540743,-1.67904 V 60.425996 a 1.5407432,1.6790403 0 0 0 -1.540743,-1.67904 H 14.851369 V 25.166149 H 25.12299 v 15.111363 a 1.5407432,1.6790403 0 0 0 1.540743,1.679041 h 14.893851 v 16.790403 h -8.730878 a 1.5407432,1.6790403 0 0 0 -1.540743,1.67904 v 21.267845 a 1.5407432,1.6790403 0 0 0 1.540743,1.67904 h 19.51608 a 1.5407432,1.6790403 0 0 0 1.540743,-1.67904 V 60.425996 a 1.5407432,1.6790403 0 0 0 -1.540743,-1.67904 H 44.63907 V 41.956553 h 13.866689 a 1.5407432,1.6790403 0 0 0 1.540743,-1.679041 V 25.166149 h 10.271621 v 33.580807 h -8.730878 a 1.5407432,1.6790403 0 0 0 -1.540743,1.67904 v 21.267845 a 1.5407432,1.6790403 0 0 0 1.540743,1.67904 h 19.51608 a 1.5407432,1.6790403 0 0 0 1.540743,-1.67904 V 60.425996 a 1.5407432,1.6790403 0 0 0 -1.540743,-1.67904 z M 22.041504,80.0148 H 5.60691 V 62.105037 h 16.434594 z m 28.760539,0 H 34.367449 V 62.105037 H 50.802043 z M 56.965015,38.598472 H 28.204477 V 7.2563854 H 56.965015 z M 79.562582,80.0148 H 63.127988 V 62.105037 h 16.434594 z"
     id="path5"
     inkscape:connector-curvature="0"
     style="fill:#ff0000" />
</svg>
