<?xml version="1.0" encoding="UTF-8" standalone="no"?>
<!-- Generator: Adobe Illustrator 21.1.0, SVG Export Plug-In . SVG Version: 6.00 Build 0)  -->

<svg
   xmlns:dc="http://purl.org/dc/elements/1.1/"
   xmlns:cc="http://creativecommons.org/ns#"
   xmlns:rdf="http://www.w3.org/1999/02/22-rdf-syntax-ns#"
   xmlns:svg="http://www.w3.org/2000/svg"
   xmlns="http://www.w3.org/2000/svg"
   xmlns:sodipodi="http://sodipodi.sourceforge.net/DTD/sodipodi-0.dtd"
   xmlns:inkscape="http://www.inkscape.org/namespaces/inkscape"
   version="1.1"
   id="Layer_1"
   x="0px"
   y="0px"
   viewBox="0 0 100.354 100.35"
   xml:space="preserve"
   inkscape:version="0.48.4 r9939"
   width="100%"
   height="100%"
   sodipodi:docname="highload.svg"><metadata
     id="metadata17"><rdf:RDF><cc:Work
         rdf:about=""><dc:format>image/svg+xml</dc:format><dc:type
           rdf:resource="http://purl.org/dc/dcmitype/StillImage" /><dc:title /></cc:Work></rdf:RDF></metadata><defs
     id="defs15" /><sodipodi:namedview
     pagecolor="#ffffff"
     bordercolor="#666666"
     borderopacity="1"
     objecttolerance="10"
     gridtolerance="10"
     guidetolerance="10"
     inkscape:pageopacity="0"
     inkscape:pageshadow="2"
     inkscape:window-width="751"
     inkscape:window-height="480"
     id="namedview13"
     showgrid="false"
     inkscape:zoom="2.3517688"
     inkscape:cx="124.58807"
     inkscape:cy="50.174999"
     inkscape:window-x="75"
     inkscape:window-y="34"
     inkscape:window-maximized="0"
     inkscape:current-layer="Layer_1" /><g
     id="g3"
     transform="matrix(1.1176506,0,0,1.1176515,-6.3645644,-6.379786)"
     style="fill:#ff0000"><path
       d="M 81.031,19.808 C 72.849,11.69 62.009,7.225 50.489,7.225 c -0.058,0 -0.116,0 -0.174,0 C 26.4,7.319 7.021,26.85 7.113,50.765 c 0.045,11.585 4.599,22.458 12.822,30.617 8.183,8.119 19.022,12.584 30.542,12.583 0.058,0 0.117,0 0.175,0 C 74.566,93.872 93.946,74.341 93.853,50.426 93.809,38.842 89.255,27.968 81.031,19.808 z M 50.641,90.965 C 39.885,91.005 29.704,86.849 22.049,79.253 14.394,71.657 10.155,61.536 10.113,50.753 10.027,28.493 28.066,10.312 50.326,10.225 c 0.055,0 0.107,0 0.162,0 10.723,0 20.814,4.156 28.43,11.713 7.655,7.595 11.894,17.716 11.936,28.5 0.086,22.26 -17.954,40.44 -40.213,40.527 z"
       id="path5"
       inkscape:connector-curvature="0"
       style="fill:#ff0000" /><path
       d="m 66.319,39.333 c 0.369,-0.649 0.205,-1.47 -0.385,-1.928 -0.59,-0.458 -1.425,-0.412 -1.963,0.107 L 51.283,49.801 c -0.225,-0.02 -0.464,-0.02 -0.672,-0.03 -3.988,0.016 -7.22,3.273 -7.206,7.261 0.007,1.932 0.767,3.745 2.139,5.106 1.364,1.354 3.171,2.098 5.09,2.098 0.01,0 0.021,0 0.032,0 1.932,-0.007 3.746,-0.767 5.107,-2.138 1.36,-1.372 2.105,-3.191 2.098,-5.122 -0.003,-0.745 -0.122,-1.479 -0.355,-2.193 l 8.803,-15.45 z M 54.492,55.272 c 0.249,0.556 0.377,1.133 0.379,1.715 0.005,1.131 -0.432,2.195 -1.228,2.998 -0.797,0.803 -1.857,1.247 -2.989,1.251 -1.131,-0.022 -2.195,-0.431 -2.998,-1.228 -0.803,-0.796 -1.247,-1.857 -1.251,-2.988 -0.009,-2.333 1.883,-4.239 4.215,-4.249 0.003,0 0.007,0 0.01,0 0.285,0 0.576,0.03 0.865,0.09 0.484,0.098 0.988,-0.047 1.346,-0.393 l 5.667,-5.488 -3.952,6.936 c -0.236,0.415 -0.26,0.919 -0.064,1.356 z"
       id="path7"
       inkscape:connector-curvature="0"
       style="fill:#ff0000" /><path
       d="m 50.751,74.602 c -0.006,0 -0.012,0 -0.019,0 -2.603,0.01 -4.712,2.136 -4.703,4.739 0.005,1.261 0.5,2.445 1.396,3.333 0.891,0.884 2.071,1.369 3.325,1.369 0.006,0 0.012,0 0.019,0 2.603,-0.01 4.712,-2.136 4.703,-4.739 -0.009,-2.597 -2.125,-4.702 -4.721,-4.702 z m 0.007,6.441 c -0.002,0 -0.004,0 -0.007,0 -0.458,0 -0.888,-0.177 -1.212,-0.499 -0.326,-0.323 -0.507,-0.755 -0.509,-1.215 -0.003,-0.949 0.765,-1.724 1.714,-1.728 0.002,0 0.004,0 0.007,0 0.946,0 1.717,0.768 1.721,1.714 0.005,0.95 -0.765,1.724 -1.714,1.728 z"
       id="path9"
       inkscape:connector-curvature="0"
       style="fill:#ff0000" /><path
       d="m 50.5,17.95 c -0.042,0 -0.086,0 -0.127,0 -8.67,0.033 -16.808,3.441 -22.915,9.595 -6.106,6.154 -9.451,14.318 -9.418,22.988 0.035,8.677 3.447,16.819 9.609,22.928 0.282,0.278 0.661,0.435 1.056,0.435 0.017,0 0.033,0 0.05,-0.001 0.413,-0.014 0.802,-0.197 1.075,-0.507 l 6.796,-7.701 c 0.548,-0.621 0.489,-1.568 -0.132,-2.117 -0.621,-0.546 -1.569,-0.487 -2.117,0.133 l -5.716,6.478 c -4.896,-5.396 -7.591,-12.316 -7.62,-19.658 -0.03,-7.869 3.005,-15.278 8.548,-20.863 5.543,-5.585 12.928,-8.678 20.797,-8.708 0.039,0 0.077,0 0.115,0 16.19,0 29.395,13.14 29.457,29.345 0.028,7.367 -2.63,14.331 -7.518,19.773 l -5.773,-5.729 c -0.589,-0.585 -1.538,-0.581 -2.121,0.008 -0.584,0.588 -0.58,1.538 0.008,2.121 l 6.864,6.812 c 0.281,0.279 0.661,0.436 1.057,0.436 0.002,0 0.004,0 0.006,0 0.397,-0.002 0.778,-0.161 1.059,-0.443 6.107,-6.154 9.452,-14.318 9.419,-22.989 C 82.887,32.427 68.34,17.95 50.5,17.95 z"
       id="path11"
       inkscape:connector-curvature="0"
       style="fill:#ff0000" /></g></svg>