<?xml version="1.0" encoding="UTF-8" standalone="no"?>
<!-- Generator: Adobe Illustrator 21.0.2, SVG Export Plug-In . SVG Version: 6.00 Build 0)  -->

<svg
   xmlns:dc="http://purl.org/dc/elements/1.1/"
   xmlns:cc="http://creativecommons.org/ns#"
   xmlns:rdf="http://www.w3.org/1999/02/22-rdf-syntax-ns#"
   xmlns:svg="http://www.w3.org/2000/svg"
   xmlns="http://www.w3.org/2000/svg"
   xmlns:sodipodi="http://sodipodi.sourceforge.net/DTD/sodipodi-0.dtd"
   xmlns:inkscape="http://www.inkscape.org/namespaces/inkscape"
   version="1.1"
   id="Layer_1"
   x="0px"
   y="0px"
   viewBox="0 0 100.5 85.5"
   xml:space="preserve"
   inkscape:version="0.48.4 r9939"
   width="100%"
   height="100%"
   sodipodi:docname="prototype.svg"><metadata
     id="metadata9"><rdf:RDF><cc:Work
         rdf:about=""><dc:format>image/svg+xml</dc:format><dc:type
           rdf:resource="http://purl.org/dc/dcmitype/StillImage" /></cc:Work></rdf:RDF></metadata><defs
     id="defs7" /><sodipodi:namedview
     pagecolor="#ffffff"
     bordercolor="#666666"
     borderopacity="1"
     objecttolerance="10"
     gridtolerance="10"
     guidetolerance="10"
     inkscape:pageopacity="0"
     inkscape:pageshadow="2"
     inkscape:window-width="640"
     inkscape:window-height="480"
     id="namedview5"
     showgrid="false"
     inkscape:zoom="2.3424318"
     inkscape:cx="50.375"
     inkscape:cy="50.375"
     inkscape:window-x="75"
     inkscape:window-y="34"
     inkscape:window-maximized="0"
     inkscape:current-layer="Layer_1" /><path
     d="M 96.028214,16.869885 79.792918,1.919584 c -0.61163,-0.5632193 -1.602134,-0.5632193 -2.213762,0 L 48.693793,28.517761 31.256113,12.718786 c -0.01356,-0.01249 -0.03131,-0.02114 -0.04593,-0.03268 -0.05741,-0.04806 -0.118985,-0.09131 -0.184741,-0.131674 -0.03132,-0.01922 -0.06053,-0.04037 -0.0929,-0.05767 -0.07724,-0.04037 -0.159692,-0.07208 -0.245277,-0.100918 -0.02192,-0.0067 -0.04071,-0.01922 -0.06262,-0.02595 L 7.0070196,5.5747429 C 6.45384,5.4161573 5.8453426,5.552637 5.4330673,5.9313203 5.020792,6.3109648 4.8715379,6.8693785 5.0458417,7.380697 l 7.3802493,21.747378 c 0.04488,0.131674 0.113767,0.252776 0.196222,0.366189 0.02609,0.03652 0.05741,0.06632 0.08663,0.09996 0.03862,0.04421 0.06993,0.09227 0.113766,0.131674 L 30.242646,45.508531 5.2525011,68.521711 c -0.6116286,0.563219 -0.6116286,1.475327 0,2.038546 L 21.488842,85.512481 c 0.293289,0.270076 0.691996,0.421934 1.107402,0.421934 0.415407,0 0.813069,-0.151858 1.107403,-0.421934 l 25.247948,-23.249617 20.42798,18.281561 c 0.260933,0.231631 0.588666,0.344083 0.923704,0.377722 2.369279,2.023169 5.425334,3.14288 8.675525,3.14288 3.415101,0 6.626673,-1.224474 9.040832,-3.448517 4.919123,-4.529783 4.974441,-11.858362 0.184741,-16.462152 -0.07619,-0.23932 -0.211878,-0.460379 -0.410187,-0.636264 L 67.306717,45.359556 96.029257,18.909393 c 0.610586,-0.564181 0.610586,-1.476288 -9.72e-4,-2.039508 z m -67.806239,-2.169259 -1.170026,3.661887 -5.45456,1.477249 c -0.510386,0.138402 -0.910136,0.505552 -1.060434,0.976503 L 18.933778,25.838144 14.956105,26.915565 8.9264486,9.1482062 28.221975,14.700626 z M 22.595201,82.454181 8.5726219,69.540504 l 5.8991901,-5.43228 7.010767,6.455878 c 0.305815,0.28161 0.706608,0.421934 1.107403,0.421934 0.400794,0 0.801588,-0.140324 1.107403,-0.421934 0.611628,-0.563219 0.611628,-1.475327 0,-2.038547 l -7.010768,-6.455877 5.744717,-5.290033 7.010768,6.455878 c 0.305814,0.281609 0.706608,0.421934 1.107402,0.421934 0.400795,0 0.801589,-0.140325 1.107403,-0.421934 0.611628,-0.56322 0.611628,-1.475327 0,-2.038547 l -7.010767,-6.455877 7.837406,-7.217089 14.222975,12.729141 -24.11132,22.20103 z m 63.207542,-3.877179 c -3.503818,3.224575 -9.047094,3.444673 -12.833765,0.667982 L 86.529183,66.758046 c 3.01535,3.487923 2.776334,8.594381 -0.72644,11.818956 z M 70.453577,77.485164 33.461525,44.379209 16.916239,29.389501 20.637153,28.382242 C 21.14754,28.24384 21.54729,27.87669 21.697589,27.405739 l 1.60422,-5.021879 5.454558,-1.477249 c 0.510387,-0.138402 0.910138,-0.505552 1.060436,-0.976503 L 30.92525,16.461407 63.955284,46.386999 84.474069,64.575331 70.453577,77.485164 z M 65.061643,43.348883 50.925297,30.539968 l 8.035715,-7.399702 7.010767,6.455877 c 0.305815,0.28161 0.706609,0.421934 1.107403,0.421934 0.400794,0 0.801589,-0.140324 1.107403,-0.421934 0.611629,-0.562258 0.611629,-1.476288 0,-2.038546 l -7.010767,-6.455878 6.527518,-6.010876 7.010768,6.455877 c 0.305814,0.28161 0.706608,0.421934 1.107402,0.421934 0.400794,0 0.801588,-0.140324 1.107403,-0.421934 0.611628,-0.562258 0.611628,-1.476288 0,-2.038546 L 69.918141,13.052296 78.687602,4.9769231 92.708093,17.889639 65.061643,43.348883 z"
     id="path3"
     inkscape:connector-curvature="0"
     style="fill:#ffffff" /></svg>