<?xml version="1.0" encoding="UTF-8" standalone="no"?>
<!-- Generator: Adobe Illustrator 21.1.0, SVG Export Plug-In . SVG Version: 6.00 Build 0)  -->

<svg
   xmlns:dc="http://purl.org/dc/elements/1.1/"
   xmlns:cc="http://creativecommons.org/ns#"
   xmlns:rdf="http://www.w3.org/1999/02/22-rdf-syntax-ns#"
   xmlns:svg="http://www.w3.org/2000/svg"
   xmlns="http://www.w3.org/2000/svg"
   xmlns:sodipodi="http://sodipodi.sourceforge.net/DTD/sodipodi-0.dtd"
   xmlns:inkscape="http://www.inkscape.org/namespaces/inkscape"
   version="1.1"
   id="Layer_1"
   x="0px"
   y="0px"
   viewBox="0 0 100.35 93.35"
   xml:space="preserve"
   inkscape:version="0.48.4 r9939"
   width="100%"
   height="100%"
   sodipodi:docname="uniq.svg"><metadata
     id="metadata13"><rdf:RDF><cc:Work
         rdf:about=""><dc:format>image/svg+xml</dc:format><dc:type
           rdf:resource="http://purl.org/dc/dcmitype/StillImage" /></cc:Work></rdf:RDF></metadata><defs
     id="defs11" /><sodipodi:namedview
     pagecolor="#ffffff"
     bordercolor="#666666"
     borderopacity="1"
     objecttolerance="10"
     gridtolerance="10"
     guidetolerance="10"
     inkscape:pageopacity="0"
     inkscape:pageshadow="2"
     inkscape:window-width="640"
     inkscape:window-height="480"
     id="namedview9"
     showgrid="false"
     inkscape:zoom="2.3517219"
     inkscape:cx="50.177"
     inkscape:cy="50.176"
     inkscape:window-x="75"
     inkscape:window-y="34"
     inkscape:window-maximized="0"
     inkscape:current-layer="Layer_1" /><g
     id="g3"
     transform="translate(0.42522038,-2.3245761)"
     style="fill:#ff0000"><path
       d="m 58.484,21.76 h -0.78 c -4.374,0 -7.933,3.559 -7.933,7.933 v 7.668 c -1.444,-1.204 -3.3,-1.929 -5.323,-1.929 -2.819,0 -5.321,1.404 -6.821,3.588 -1.5,-2.184 -4.003,-3.588 -6.824,-3.588 -1.943,0 -3.772,0.695 -5.219,1.869 L 25.348,19.118 c 0,-4.589 -3.733,-8.323 -8.323,-8.323 -4.59,0 -8.323,3.733 -8.323,8.334 l 0.304,39.874 c 0,0.33 0.096,12.28 0.096,12.286 0,9.71 6.364,18.962 14.824,21.584 0.89,0.428 4.962,2.053 15.438,2.053 0.004,0 0.007,0 0.012,0 9.801,0 15.367,-2.51 15.921,-2.772 9.745,-4.191 11.06,-12.897 11.06,-20.863 V 60.08 l 0.012,-0.095 c 0.026,-0.196 0.048,-0.391 0.048,-0.592 v -29.7 c 0,-4.374 -3.559,-7.933 -7.933,-7.933 z M 44.449,38.432 c 2.935,0 5.323,2.388 5.323,5.323 0,0.066 0.011,0.13 0.02,0.194 v 6.06 c 0,2.793 -2.394,5.064 -5.336,5.064 -2.944,0 -5.339,-2.271 -5.339,-5.064 v -6.531 c 0.023,-0.083 0.063,-0.157 0.072,-0.245 0.273,-2.738 2.535,-4.801 5.26,-4.801 z m -13.645,0 c 2.728,0 4.991,2.063 5.265,4.8 0.002,0.021 0.015,0.039 0.018,0.06 v 6.717 c 0,2.792 -2.34,5.062 -5.216,5.064 -10e-4,0 -0.002,-10e-4 -0.004,-10e-4 h -0.01 c -2.874,-0.005 -5.21,-2.274 -5.21,-5.063 v -7.497 c 0.578,-2.369 2.726,-4.08 5.157,-4.08 z M 17.026,13.795 c 2.935,0 5.323,2.388 5.323,5.342 l 0.297,22.869 v 8.003 c 0,1.917 0.688,3.678 1.831,5.063 h -12.5 L 11.703,19.117 c 0,-2.934 2.388,-5.322 5.323,-5.322 z m 46.391,45.599 c 0,0.066 -0.013,0.13 -0.021,0.193 l -0.031,0.261 c -0.005,0.048 -0.007,0.097 -0.007,0.145 V 71.29 c 0,7.348 -1.123,14.627 -9.27,18.118 -0.022,0.01 -0.045,0.02 -0.066,0.03 -0.052,0.025 -5.208,2.487 -14.645,2.487 -0.003,0 -0.007,0 -0.011,0 -10.6,0 -14.141,-1.758 -14.158,-1.766 -0.092,-0.05 -0.188,-0.091 -0.289,-0.121 -7.307,-2.201 -12.816,-10.262 -12.816,-18.762 0,0 -0.096,-11.944 -0.096,-12.286 L 12,58.073 h 17.523 c 0.022,1.196 -0.211,3.147 -1.624,4.994 -2.201,2.878 -4.558,3.558 -5.666,3.71 -0.383,-0.003 -0.626,0.015 -0.674,0.019 -0.054,0.005 -0.104,0.02 -0.155,0.03 -0.739,0.064 -1.341,0.631 -1.391,1.388 -0.055,0.826 0.571,1.541 1.397,1.596 0.021,0.001 0.092,0.005 0.207,0.005 0.151,0 0.384,-0.01 0.672,-0.038 1.348,0.017 5.394,0.406 8.999,4.267 4.292,4.599 4,9.007 3.986,9.182 -0.076,0.825 0.531,1.556 1.356,1.632 0.047,0.004 0.093,0.006 0.14,0.006 0.766,0 1.42,-0.584 1.492,-1.362 0.022,-0.237 0.475,-5.874 -4.78,-11.504 -2.044,-2.19 -4.227,-3.464 -6.161,-4.207 0.981,-0.7 1.992,-1.633 2.961,-2.899 1.963,-2.566 2.274,-5.283 2.229,-6.978 2.103,-0.421 3.914,-1.635 5.1,-3.306 1.508,2.094 4.011,3.469 6.843,3.469 4.597,0 8.336,-3.618 8.336,-8.064 V 41.92 c 0,-0.066 -0.011,-0.13 -0.02,-0.194 V 29.693 c 0,-2.72 2.213,-4.933 4.933,-4.933 h 0.78 c 2.72,0 4.933,2.213 4.933,4.933 v 29.701 z"
       id="path5"
       inkscape:connector-curvature="0"
       style="fill:#ff0000" /><path
       d="M 92.724,23.812 85.65,18.258 86.929,6.738 C 87.006,6.04 86.588,5.381 85.924,5.154 85.259,4.927 84.525,5.191 84.158,5.79 L 74.149,22.133 c -0.395,0.645 -0.248,1.482 0.342,1.954 l 6.849,5.481 -1.28,11.528 c -0.077,0.695 0.336,1.351 0.996,1.582 0.163,0.057 0.33,0.084 0.495,0.084 0.504,0 0.988,-0.255 1.27,-0.701 l 10.247,-16.27 c 0.409,-0.65 0.26,-1.505 -0.344,-1.979 z m -8.961,11.124 0.65,-5.857 c 0.057,-0.511 -0.152,-1.016 -0.554,-1.336 l -6.461,-5.171 5.807,-9.48 -0.63,5.667 c -0.057,0.516 0.156,1.025 0.565,1.345 l 6.667,5.234 -6.044,9.598 z"
       id="path7"
       inkscape:connector-curvature="0"
       style="fill:#ff0000" /></g></svg>